<?xml version="1.0" encoding="utf-8"?>
<!-- Generator: Adobe Illustrator 21.1.0, SVG Export Plug-In . SVG Version: 6.00 Build 0)  -->
<svg version="1.1" id="Layer_2" xmlns="http://www.w3.org/2000/svg" xmlns:xlink="http://www.w3.org/1999/xlink" x="0px" y="0px"
	 viewBox="0 0 145 128" style="enable-background:new 0 0 145 128;" xml:space="preserve">
<path d="M96.4,64.9c-0.1,0-0.2,0-0.3,0l-2.5-23.7v-5.9h-15v6.9h7.3l1.1,10.9H66.8v-4.3H72V42H57v6.9h3.2v8.7l-6.9,8.8l0.4,0.3
	c-1.5-0.5-3.1-0.8-4.7-0.8c-8.3,0-15,6.7-15,15s6.7,15,15,15c7.4,0,13.5-5.3,14.8-12.4h17.6c1.4,7.1,7.7,12.4,15.2,12.4
	c8.6,0,15.5-6.9,15.5-15.5S104.9,64.9,96.4,64.9z M88.5,66.8l0.4,0c-3.5,1.9-6.1,5.1-7.3,9H62.9c-0.7-2-1.9-3.8-3.3-5.3l7.5-9.5
	h20.8L88.5,66.8z M48.7,89c-4.4,0-7.9-3.5-7.9-7.9s3.5-7.9,7.9-7.9c4.4,0,7.9,3.5,7.9,7.9S53.1,89,48.7,89z M96.2,88.8
	c-4.5,0-8.2-3.7-8.2-8.2s3.7-8.2,8.2-8.2s8.2,3.7,8.2,8.2S100.7,88.8,96.2,88.8z"/>
<g>
	<path d="M135,10v108H10V10H135 M145,0H0v128h145V0L145,0z"/>
</g>
</svg>
