<?xml version="1.0" encoding="UTF-8" standalone="no"?><!DOCTYPE svg PUBLIC "-//W3C//DTD SVG 1.1//EN" "http://www.w3.org/Graphics/SVG/1.1/DTD/svg11.dtd"><svg width="100%" height="100%" viewBox="0 0 512 512" version="1.1" xmlns="http://www.w3.org/2000/svg" xmlns:xlink="http://www.w3.org/1999/xlink" xml:space="preserve" xmlns:serif="http://www.serif.com/" style="fill-rule:evenodd;clip-rule:evenodd;stroke-linejoin:round;stroke-miterlimit:1.41421;"><g id="Layer1"></g><clipPath id="_clip1"><rect x="255" y="-6.167" width="228" height="563.943"/></clipPath><g clip-path="url(#_clip1)"><path d="M185.702,406.189c-81.123,-28.811 -139.279,-106.287 -139.279,-197.239c0,-115.483 93.758,-209.24 209.241,-209.24c115.483,0 209.24,93.757 209.24,209.24c0,90.675 -57.803,167.957 -138.539,196.975l-70.689,105.402l-69.974,-105.138Z" style="fill:#bc2929;"/></g><clipPath id="_clip2"><rect x="28.327" y="-6.167" width="228" height="563.943"/></clipPath><g clip-path="url(#_clip2)"><path d="M325.625,406.189c81.123,-28.811 139.279,-106.287 139.279,-197.239c0,-115.483 -93.757,-209.24 -209.24,-209.24c-115.483,0 -209.241,93.757 -209.241,209.24c0,90.675 57.803,167.957 138.54,196.975l70.688,105.402l69.974,-105.138Z" style="fill:#cc2c2c;"/></g><g><path d="M189.7,144.2l16,39.4l29.6,33l60.8,-32l2,4.2l31,-12.6l-13.8,-33l-40,-12.6l10.2,23.8l-46.4,23.6l-14,-34.2l-35.4,0.4Z" style="fill:#fff;"/><path d="M244.375,128.25c0,-8.9 -7.225,-16.125 -16.125,-16.125l-48,0c-8.9,0 -16.125,7.225 -16.125,16.125c0,8.9 7.225,16.125 16.125,16.125l48,0c8.9,0 16.125,-7.225 16.125,-16.125Z" style="fill:#fff;"/><path d="M340.375,128.25c0,-8.9 -7.225,-16.125 -16.125,-16.125l-32.75,0c-8.9,0 -16.125,7.225 -16.125,16.125c0,8.9 7.225,16.125 16.125,16.125l32.75,0c8.9,0 16.125,-7.225 16.125,-16.125Z" style="fill:#fff;"/><path d="M175.875,175.125c35.736,0 64.75,29.014 64.75,64.75c0,35.736 -29.014,64.75 -64.75,64.75c-35.736,0 -64.75,-29.014 -64.75,-64.75c0,-35.736 29.014,-64.75 64.75,-64.75Zm0,32.25c17.937,0 32.5,14.563 32.5,32.5c0,17.937 -14.563,32.5 -32.5,32.5c-17.937,0 -32.5,-14.563 -32.5,-32.5c0,-17.937 14.563,-32.5 32.5,-32.5Z" style="fill:#fff;"/><path d="M335.875,175.125c35.736,0 64.75,29.014 64.75,64.75c0,35.736 -29.014,64.75 -64.75,64.75c-35.736,0 -64.75,-29.014 -64.75,-64.75c0,-35.736 29.014,-64.75 64.75,-64.75Zm0,32.25c17.937,0 32.5,14.563 32.5,32.5c0,17.937 -14.563,32.5 -32.5,32.5c-17.937,0 -32.5,-14.563 -32.5,-32.5c0,-17.937 14.563,-32.5 32.5,-32.5Z" style="fill:#fff;"/></g></svg>